<?xml version="1.0" encoding="UTF-8" standalone="no"?>
<svg
   xmlns:dc="http://purl.org/dc/elements/1.1/"
   xmlns:cc="http://creativecommons.org/ns#"
   xmlns:rdf="http://www.w3.org/1999/02/22-rdf-syntax-ns#"
   xmlns:svg="http://www.w3.org/2000/svg"
   xmlns="http://www.w3.org/2000/svg"
   xmlns:sodipodi="http://sodipodi.sourceforge.net/DTD/sodipodi-0.dtd"
   xmlns:inkscape="http://www.inkscape.org/namespaces/inkscape"
   width="96"
   height="96"
   version="1.1"
   id="svg11"
   sodipodi:docname="hexchat-highlight.svg"
   inkscape:export-filename="/home/algent/.config/hexchat/icons/tray_normal2.png"
   inkscape:export-xdpi="96"
   inkscape:export-ydpi="96"
   inkscape:version="0.92.4 5da689c313, 2019-01-14">
  <metadata
     id="metadata15">
    <rdf:RDF>
      <cc:Work
         rdf:about="">
        <dc:format>image/svg+xml</dc:format>
        <dc:type
           rdf:resource="http://purl.org/dc/dcmitype/StillImage" />
        <dc:title></dc:title>
      </cc:Work>
    </rdf:RDF>
  </metadata>
  <sodipodi:namedview
     pagecolor="#ffffff"
     bordercolor="#666666"
     borderopacity="1"
     objecttolerance="10"
     gridtolerance="10"
     guidetolerance="10"
     inkscape:pageopacity="0"
     inkscape:pageshadow="2"
     inkscape:window-width="1280"
     inkscape:window-height="960"
     id="namedview13"
     showgrid="false"
     inkscape:zoom="3.6371805"
     inkscape:cx="1.9277213"
     inkscape:cy="7.4714549"
     inkscape:window-x="0"
     inkscape:window-y="0"
     inkscape:window-maximized="1"
     inkscape:current-layer="g9" />
  <defs
     id="defs3">
    <style
       id="current-color-scheme"
       type="text/css">
   .ColorScheme-Text { color:#ffffff; } .ColorScheme-Highlight { color:#5294e2; }
  </style>
  </defs>
  <g
     id="g9"
     transform="matrix(3.9998162,0,0,4.2857142,-1.9994485,-3.4285705)"
     inkscape:export-xdpi="96"
     inkscape:export-ydpi="96"
     inkscape:export-filename="/home/algent/.config/hexchat/icons/g9.png">
    <path
       style="color:#ffffff;fill:currentColor;stroke-width:1.0801605"
       class="ColorScheme-Text"
       d="M 8.4314738,4.5333339 C 8.0380553,4.5330336 7.6742498,4.7353425 7.4766903,5.0642804 L 3.6490519,11.463603 c -0.1987052,0.331033 -0.1987052,0.739629 0,1.070661 l 3.8276384,6.398945 c 0.1974603,0.329083 0.5612845,0.53368 0.9547835,0.533458 h 7.6421432 c 0.392807,-4.46e-4 0.755734,-0.204953 0.952846,-0.533458 l 3.825335,-6.398945 c 0.198706,-0.331032 0.198706,-0.739628 0,-1.070661 L 17.026463,5.0642804 C 16.829251,4.7359211 16.466345,4.5337011 16.073617,4.5333339 Z m 6.6877092,2.1330069 c 0.281669,-1.107e-4 0.544045,0.131751 0.696324,0.3499485 v 0.00208 l -3.563,3.4725067 L 8.6898931,7.016105 C 8.8350225,6.8076308 9.0811371,6.6771208 9.3497942,6.6661714 Z m -7.6040535,2.220528 3.1910075,3.1119902 -3.1910075,3.112366 -1.7131082,-2.7288 c -0.149781,-0.236911 -0.149781,-0.529657 0,-0.766566 L 7.5150132,8.8870955 Z m 9.4749875,0 1.712992,2.7287632 c 0.14978,0.23691 0.14978,0.529655 0,0.766566 L 16.99,15.111377 13.798992,11.99901 16.99,8.88702 Z m -4.737494,4.6201802 3.560677,3.472504 c -0.15133,0.218397 -0.41282,0.351007 -0.694157,0.352031 H 9.3861798 C 9.1045141,17.331697 8.8421374,17.199841 8.6898544,16.98165 l 3.5626136,-3.474772 z"
       id="path5"
       inkscape:connector-curvature="0" />
  </g>
</svg>
