<?xml version="1.0" encoding="UTF-8" standalone="no"?>
<svg
   xmlns:dc="http://purl.org/dc/elements/1.1/"
   xmlns:cc="http://creativecommons.org/ns#"
   xmlns:rdf="http://www.w3.org/1999/02/22-rdf-syntax-ns#"
   xmlns:svg="http://www.w3.org/2000/svg"
   xmlns="http://www.w3.org/2000/svg"
   xmlns:sodipodi="http://sodipodi.sourceforge.net/DTD/sodipodi-0.dtd"
   xmlns:inkscape="http://www.inkscape.org/namespaces/inkscape"
   width="96"
   height="96"
   version="1.1"
   id="svg11"
   sodipodi:docname="Tray_Normal_Message.svg"
   inkscape:export-filename="/home/algent/.config/hexchat/icons/tray_normal2.png"
   inkscape:export-xdpi="18"
   inkscape:export-ydpi="18"
   inkscape:version="0.92.4 5da689c313, 2019-01-14"
   viewBox="0 0 57.6 57.6">
  <metadata
     id="metadata15">
    <rdf:RDF>
      <cc:Work
         rdf:about="">
        <dc:format>image/svg+xml</dc:format>
        <dc:type
           rdf:resource="http://purl.org/dc/dcmitype/StillImage" />
        <dc:title />
      </cc:Work>
    </rdf:RDF>
  </metadata>
  <sodipodi:namedview
     pagecolor="#ffffff"
     bordercolor="#666666"
     borderopacity="1"
     objecttolerance="10"
     gridtolerance="10"
     guidetolerance="10"
     inkscape:pageopacity="0"
     inkscape:pageshadow="2"
     inkscape:window-width="1280"
     inkscape:window-height="960"
     id="namedview13"
     showgrid="false"
     inkscape:zoom="3.6371805"
     inkscape:cx="13.231885"
     inkscape:cy="13.861175"
     inkscape:window-x="0"
     inkscape:window-y="0"
     inkscape:window-maximized="1"
     inkscape:current-layer="g9"
     scale-x="0.6"
     inkscape:pagecheckerboard="true" />
  <defs
     id="defs3">
    <style
       id="current-color-scheme"
       type="text/css">
   .ColorScheme-Text { color:#ffffff; } .ColorScheme-Highlight { color:#5294e2; }
  </style>
    <style
       type="text/css"
       id="current-color-scheme-3">
   .ColorScheme-Text { color:#dfdfdf; } .ColorScheme-Highlight { color:#5294e2; }
  </style>
  </defs>
  <g
     id="g9"
     transform="matrix(3.9998162,0,0,4.2857142,-1.9994485,-3.4285705)"
     inkscape:export-xdpi="96"
     inkscape:export-ydpi="96"
     inkscape:export-filename="/home/algent/.config/hexchat/icons/g9.png">
    <path
       style="color:#ffffff;fill:currentColor;stroke-width:0.8763662"
       d="M 4.5577599,1.4536033 C 4.2340406,1.4533634 3.9347541,1.6151885 3.7721947,1.8783334 L 0.62251181,6.9976967 c -0.16350229,0.2648207 -0.16350229,0.5915677 0,0.8563871 L 3.7721947,12.973083 C 3.9346725,13.236344 4.2339743,13.400177 4.5577599,13.4 h 6.2884281 c 0.323217,-3.57e-4 0.621811,-0.164119 0.784002,-0.426917 l 3.14773,-5.1189992 c 0.163503,-0.2648194 0.163503,-0.5915664 0,-0.8563871 L 11.63019,1.8783334 C 11.467917,1.6156513 11.169341,1.4538967 10.846188,1.4536033 Z M 3.3065587,4.0231285 H 12.088795 L 7.6976769,8.358655 Z m 0,1.2264308 2.8918645,2.8549868 -2.8918645,2.8553529 z m 8.7822363,0 v 5.6866417 l -0.0086,0.01495 L 9.1969248,8.1045435 Z M 6.8195315,8.7177616 7.0765687,8.9718705 a 0.87828979,0.86717553 0 0 0 1.2422163,0 L 8.5758224,8.7177616 10.846969,10.959899 H 4.5483847 Z"
       id="path24"
       inkscape:connector-curvature="0" />
    <path
       id="path13"
       d="m 0.20855846,19.489566 c -0.434891,0 -0.785001,0.310268 -0.785001,0.695668 v 2.78267 c 0,0.3854 0.35011,0.695668 0.785001,0.695668 H 4.9185628 c 0.4348899,0 0.7850009,-0.310268 0.7850009,-0.695668 v -2.78267 c 0,-0.3854 -0.350111,-0.695668 -0.7850009,-0.695668 z m 0,0.695668 2.35500254,1.043501 2.3550018,-1.043501 v 0.695668 l -2.3550018,1.0435 -2.35500254,-1.0435 z"
       class="ColorScheme-Highlight"
       style="color:#5294e2;fill:#808080;stroke-width:0.3694928"
       inkscape:connector-curvature="0" />
    <path
       style="color:#ffffff;fill:#808080;stroke-width:0.59470111"
       d="m 7.10477,18.875048 3.293462,3.251755 3.293213,-3.251755 z m 0,0.919816 v 4.282838 l 2.1689688,-2.141419 z m 6.586675,0 -2.168968,2.141419 2.162486,2.134966 0.0065,-0.01137 z m -3.9520546,2.601198 -1.7033171,1.68164 h 4.7240697 l -1.703318,-1.68164 -0.192941,0.19052 a 0.65873224,0.65039636 0 0 1 -0.9315524,0 z"
       id="path5-6"
       inkscape:connector-curvature="0" />
  </g>
</svg>
