<?xml version="1.0" encoding="UTF-8" standalone="no"?>
<svg
   xmlns:dc="http://purl.org/dc/elements/1.1/"
   xmlns:cc="http://creativecommons.org/ns#"
   xmlns:rdf="http://www.w3.org/1999/02/22-rdf-syntax-ns#"
   xmlns:svg="http://www.w3.org/2000/svg"
   xmlns="http://www.w3.org/2000/svg"
   xmlns:sodipodi="http://sodipodi.sourceforge.net/DTD/sodipodi-0.dtd"
   xmlns:inkscape="http://www.inkscape.org/namespaces/inkscape"
   width="96"
   height="96"
   version="1.1"
   id="svg11"
   sodipodi:docname="tray_fileoffer.svg"
   inkscape:export-filename="/home/algent/.config/hexchat/icons/tray_fileoffer.png"
   inkscape:export-xdpi="18"
   inkscape:export-ydpi="18"
   inkscape:version="0.92.4 5da689c313, 2019-01-14"
   viewBox="0 0 57.6 57.6">
  <metadata
     id="metadata15">
    <rdf:RDF>
      <cc:Work
         rdf:about="">
        <dc:format>image/svg+xml</dc:format>
        <dc:type
           rdf:resource="http://purl.org/dc/dcmitype/StillImage" />
        <dc:title />
      </cc:Work>
    </rdf:RDF>
  </metadata>
  <sodipodi:namedview
     pagecolor="#ffffff"
     bordercolor="#666666"
     borderopacity="1"
     objecttolerance="10"
     gridtolerance="10"
     guidetolerance="10"
     inkscape:pageopacity="0"
     inkscape:pageshadow="2"
     inkscape:window-width="1280"
     inkscape:window-height="958"
     id="namedview13"
     showgrid="false"
     inkscape:zoom="5.14375"
     inkscape:cx="47.631295"
     inkscape:cy="27.859348"
     inkscape:window-x="0"
     inkscape:window-y="0"
     inkscape:window-maximized="1"
     inkscape:current-layer="g9"
     scale-x="0.6"
     inkscape:pagecheckerboard="true" />
  <defs
     id="defs3">
    <style
       id="current-color-scheme"
       type="text/css">
   .ColorScheme-Text { color:#ffffff; } .ColorScheme-Highlight { color:#5294e2; }
  </style>
    <style
       type="text/css"
       id="current-color-scheme-6">
   .ColorScheme-Text { color:#dfdfdf; } .ColorScheme-Highlight { color:#4285f4; }
  </style>
  </defs>
  <g
     id="g9"
     transform="matrix(3.9998162,0,0,4.2857142,-1.9994485,-3.4285705)"
     inkscape:export-xdpi="96"
     inkscape:export-ydpi="96"
     inkscape:export-filename="/home/algent/.config/hexchat/icons/g9.png">
    <path
       style="color:#ffffff;fill:#66cc33;stroke-width:6.04749966"
       d="M 27.050781 4.6660156 C 24.892699 4.6642992 22.898158 5.8215269 21.814453 7.7011719 L 0.81835938 44.267578 C -0.27163054 46.159192 -0.27163054 48.495105 0.81835938 50.386719 L 21.814453 86.951172 C 22.897614 88.83165 24.892257 90.001264 27.050781 90 L 68.972656 90 C 71.127384 89.99745 73.117968 88.828343 74.199219 86.951172 L 95.181641 50.386719 C 96.271631 48.495105 96.271631 46.159192 95.181641 44.267578 L 74.199219 7.7011719 C 73.117422 5.8248326 71.126957 4.6681135 68.972656 4.6660156 L 27.050781 4.6660156 z M 36 18 L 60 18 L 60 48 L 72 48 L 48 78 L 24 48 L 36 48 L 36 18 z "
       transform="matrix(0.15000689,0,0,0.14,0.49988509,0.7999998)"
       id="path5" />
  </g>
</svg>
