<?xml version="1.0" encoding="UTF-8" standalone="no"?>
<svg
   xmlns:dc="http://purl.org/dc/elements/1.1/"
   xmlns:cc="http://creativecommons.org/ns#"
   xmlns:rdf="http://www.w3.org/1999/02/22-rdf-syntax-ns#"
   xmlns:svg="http://www.w3.org/2000/svg"
   xmlns="http://www.w3.org/2000/svg"
   xmlns:sodipodi="http://sodipodi.sourceforge.net/DTD/sodipodi-0.dtd"
   xmlns:inkscape="http://www.inkscape.org/namespaces/inkscape"
   width="96"
   height="96"
   version="1.1"
   id="svg11"
   sodipodi:docname="Tray_Normal.svg"
   inkscape:export-filename="/home/algent/.config/hexchat/icons/tray_normal.png"
   inkscape:export-xdpi="18"
   inkscape:export-ydpi="18"
   inkscape:version="0.92.4 5da689c313, 2019-01-14"
   viewBox="0 0 57.6 57.6">
  <metadata
     id="metadata15">
    <rdf:RDF>
      <cc:Work
         rdf:about="">
        <dc:format>image/svg+xml</dc:format>
        <dc:type
           rdf:resource="http://purl.org/dc/dcmitype/StillImage" />
        <dc:title />
      </cc:Work>
    </rdf:RDF>
  </metadata>
  <sodipodi:namedview
     pagecolor="#ffffff"
     bordercolor="#666666"
     borderopacity="1"
     objecttolerance="10"
     gridtolerance="10"
     guidetolerance="10"
     inkscape:pageopacity="0"
     inkscape:pageshadow="2"
     inkscape:window-width="1280"
     inkscape:window-height="960"
     id="namedview13"
     showgrid="false"
     inkscape:zoom="2.571875"
     inkscape:cx="-7.7801069"
     inkscape:cy="50.452415"
     inkscape:window-x="0"
     inkscape:window-y="0"
     inkscape:window-maximized="1"
     inkscape:current-layer="g9"
     scale-x="0.6"
     inkscape:pagecheckerboard="true" />
  <defs
     id="defs3">
    <style
       id="current-color-scheme"
       type="text/css">
   .ColorScheme-Text { color:#ffffff; } .ColorScheme-Highlight { color:#5294e2; }
  </style>
  </defs>
  <g
     id="g9"
     transform="matrix(3.9998162,0,0,4.2857142,-1.9994485,-3.4285705)"
     inkscape:export-xdpi="96"
     inkscape:export-ydpi="96"
     inkscape:export-filename="/home/algent/.config/hexchat/icons/g9.png">
    <path
       style="color:#ffffff;fill:currentColor;stroke-width:0.87638432"
       class="ColorScheme-Text"
       d="M 4.5577647,1.4533801 C 4.2340375,1.4531399 3.9346775,1.6149864 3.7721143,1.8781356 L 0.62251462,6.9975734 c -0.16350604,0.2648253 -0.16350604,0.5917009 0,0.8565256 L 3.7721143,12.973235 C 3.9345959,13.236501 4.2339712,13.400177 4.5577647,13.4 h 6.2883913 c 0.323224,-3.57e-4 0.621861,-0.163962 0.784056,-0.426765 l 3.147705,-5.119136 c 0.163506,-0.2648247 0.163506,-0.5917003 0,-0.8565256 L 11.630212,1.8781356 C 11.467935,1.6154492 11.169316,1.4536739 10.846156,1.4533801 Z m 5.5030283,1.7063988 c 0.231774,-8.86e-5 0.447672,0.1054009 0.572976,0.2799577 v 0.00167 L 7.7019293,6.2193948 4.7704068,3.4395891 C 4.8898281,3.2728105 5.0923448,3.1684029 5.3134112,3.1596434 Z M 3.8037443,4.9361941 6.4294876,7.4257765 3.8037443,9.9156605 2.3941008,7.7326281 c -0.123248,-0.1895281 -0.123248,-0.4237239 0,-0.6132504 L 3.8036485,4.9363756 Z m 7.7965607,0 1.409546,2.183002 c 0.123254,0.1895273 0.123254,0.4237223 0,0.6132504 L 11.600208,9.9157815 8.9744655,7.4258973 11.600208,4.9363152 Z M 7.7020248,8.632324 10.631953,11.410317 C 10.50743,11.585034 10.292261,11.691122 10.06076,11.69194 H 5.3433513 c -0.2317707,9.1e-5 -0.4476692,-0.1054 -0.5729762,-0.279945 L 7.7018973,8.6321866 Z"
       id="path5"
       inkscape:connector-curvature="0" />
  </g>
</svg>
